#tb 0: 1/25
0,          0,          0,        1,   599040, 0x001f0c48
0,          1,          1,        1,   599040, 0xf8160d82
0,          2,          2,        1,   599040, 0x5f2060e2
0,          3,          3,        1,   599040, 0x421104a7
0,          4,          4,        1,   599040, 0xded62c79
0,          5,          5,        1,   599040, 0x782b4517
0,          6,          6,        1,   599040, 0xcf47861d
0,          7,          7,        1,   599040, 0xd401373c
0,          8,          8,        1,   599040, 0x0cec903c
0,          9,          9,        1,   599040, 0x2dec6230
0,         10,         10,        1,   599040, 0xe8d25791
0,         11,         11,        1,   599040, 0x243af0ad
0,         12,         12,        1,   599040, 0x4f77c47b
0,         13,         13,        1,   599040, 0x9777f7c4
0,         14,         14,        1,   599040, 0xc5c5be51
0,         15,         15,        1,   599040, 0xb9b27b63
0,         16,         16,        1,   599040, 0xc333f76b
0,         17,         17,        1,   599040, 0x6bd00f09
0,         18,         18,        1,   599040, 0x7f76875d
0,         19,         19,        1,   599040, 0xc9e80bec
0,         20,         20,        1,   599040, 0x8681b48f
0,         21,         21,        1,   599040, 0xefaa5077
0,         22,         22,        1,   599040, 0x73cc72a4
0,         23,         23,        1,   599040, 0x55c8bc27
0,         24,         24,        1,   599040, 0x9d84419d
0,         25,         25,        1,   599040, 0x89db2dfe
0,         26,         26,        1,   599040, 0x39a012fe
0,         27,         27,        1,   599040, 0x9ae88b01
0,         28,         28,        1,   599040, 0x0928f3d0
0,         29,         29,        1,   599040, 0x39359eb1
0,         30,         30,        1,   599040, 0x3e00a5b5
0,         31,         31,        1,   599040, 0xaf1b1809
0,         32,         32,        1,   599040, 0xe55e8b18
0,         33,         33,        1,   599040, 0xa4739b3d
0,         34,         34,        1,   599040, 0x224d47d4
0,         35,         35,        1,   599040, 0x3ce1d830
0,         36,         36,        1,   599040, 0xd3b33990
0,         37,         37,        1,   599040, 0x15c3ae0e
0,         38,         38,        1,   599040, 0xcce735aa
0,         39,         39,        1,   599040, 0x173d8406
0,         40,         40,        1,   599040, 0xe0f77fcc
0,         41,         41,        1,   599040, 0xbeefe9eb
0,         42,         42,        1,   599040, 0xb3d761cf
0,         43,         43,        1,   599040, 0x75ffe5f0
0,         44,         44,        1,   599040, 0xf446226e
0,         45,         45,        1,   599040, 0xf425475a
0,         46,         46,        1,   599040, 0x5180ee65
0,         47,         47,        1,   599040, 0x5edb78f9
0,         48,         48,        1,   599040, 0x28eb41c5
0,         49,         49,        1,   599040, 0x0d65d9d3
